<svg width="34" height="34" viewBox="0 0 34 34" fill="none" xmlns="http://www.w3.org/2000/svg">
<g id="Icon">
<path id="Vector" d="M33.9805 30.8185C33.9518 30.3321 33.8982 29.8508 33.8629 29.367C33.7883 28.2842 33.8302 27.2067 33.8864 26.1239C33.9165 25.538 33.3738 25.049 32.8115 25.049C32.5172 25.049 32.2635 25.168 32.0739 25.355C31.9602 25.3131 31.8425 25.2844 31.7156 25.2935C31.6018 25.3027 31.4894 25.3144 31.3769 25.3275C31.3481 24.9875 31.3351 24.6462 31.322 24.3088C31.3037 23.8629 31.2867 23.4209 31.2736 22.9776C31.2409 21.9746 31.186 20.9676 31.1428 19.9646C31.0997 18.9642 31.1324 17.9573 31.1428 16.9543C31.1481 16.4731 31.1455 15.9945 31.169 15.5132C31.1925 15.0215 31.2278 14.5298 31.2435 14.0355C31.2736 13.1528 31.2736 12.2649 31.2945 11.3809C31.3181 10.5034 31.3298 9.62597 31.3325 8.74589C31.4776 8.7642 31.6215 8.78381 31.7679 8.79689C32.0059 8.82043 32.2492 8.82566 32.4898 8.8322C32.597 8.83481 32.6964 8.80343 32.7945 8.77335C32.8049 8.77335 32.8141 8.77989 32.8258 8.77989C33.3738 8.77989 33.8393 8.31958 33.8367 7.76904C33.8315 6.80657 33.8472 5.84149 33.8668 4.87641C33.8903 3.80671 33.9897 2.74094 33.9975 1.67124C33.9989 1.37178 33.8668 1.09977 33.6628 0.90362C33.5438 0.566234 33.2901 0.277232 32.9265 0.185693C32.6375 0.11377 32.3276 0.126847 32.0308 0.105924C31.7718 0.0902313 31.5116 0.0758466 31.2527 0.0627697C30.846 0.0444619 30.4432 0.00915404 30.0365 0.00653864C29.5448 0.00261555 29.0544 0 28.5627 0C27.7271 0 26.8928 0.00784632 26.0572 0.0326926C25.4125 0.0510004 24.8724 0.55708 24.8724 1.21485C24.8724 1.54047 25.0228 1.84909 25.253 2.0727C25.27 2.3277 25.2857 2.58401 25.3013 2.83901C24.8986 2.86386 24.4945 2.85994 24.093 2.86648C23.617 2.87171 23.1436 2.90178 22.6703 2.9044C21.7823 2.90701 20.8957 2.91486 20.0104 2.90963C18.9799 2.90309 17.9508 2.90571 16.9216 2.89263C15.933 2.87955 14.9457 2.83378 13.9571 2.81548C13.0613 2.79978 12.1655 2.81024 11.2697 2.78671C10.5034 2.7684 9.73712 2.74486 8.97081 2.72263C8.97081 2.46763 8.9682 2.21263 8.9695 1.95632C8.97081 1.71309 8.87274 1.4947 8.73281 1.31031C8.73281 1.29854 8.73935 1.28939 8.73935 1.27762C8.73935 0.98862 8.62427 0.706157 8.41896 0.502156C8.19927 0.283771 7.94296 0.206616 7.6435 0.18177C6.67842 0.0967696 5.71072 0.189616 4.74302 0.189616C3.52817 0.192232 2.31463 0.155616 1.10108 0.139924C1.09716 0.139924 1.09193 0.139924 1.08801 0.139924C0.491695 0.139924 0 0.651234 0 1.24101C0 1.5627 0.150385 1.84909 0.376617 2.05178C0.396233 2.52386 0.421079 2.99594 0.43154 3.46802C0.440694 3.97279 0.438079 4.47494 0.432848 4.97841C0.427618 5.48056 0.430233 5.98664 0.432848 6.4888C0.435464 6.96742 0.425002 7.44604 0.478618 7.92204C0.510002 8.20973 0.571464 8.44773 0.784619 8.65958C0.979466 8.85443 1.24754 8.96427 1.52478 8.96427C1.61632 8.96427 1.70393 8.9355 1.79155 8.91066C2.21655 8.90804 2.64155 8.89627 3.06525 8.88581C3.05348 9.89405 3.06001 10.9023 3.02732 11.9105C2.99332 12.8795 2.96194 13.8511 2.87694 14.8162C2.8364 15.287 2.77494 15.7565 2.77755 16.2298C2.78017 16.7242 2.78801 17.2159 2.78801 17.7089C2.79063 18.6975 2.77755 19.6848 2.7854 20.6734C2.79324 21.5025 2.83378 22.3316 2.87694 23.1593C2.91224 23.7949 2.93186 24.4291 2.97632 25.0607C2.68994 25.0568 2.40224 25.0503 2.11586 25.049C1.71832 25.0477 1.37962 25.2752 1.17954 25.5956C0.881389 25.7865 0.666926 26.1056 0.672157 26.477C0.680003 27.0576 0.71008 27.6395 0.707465 28.2175C0.704849 28.6831 0.699619 29.1486 0.691773 29.6154C0.681311 30.064 0.681311 30.5112 0.67608 30.9598C0.67608 31.1546 0.683926 31.3495 0.699619 31.543C0.723157 31.8503 0.750619 32.1367 0.907543 32.4087C0.914081 32.4218 0.927158 32.4296 0.935004 32.4414C1.09847 32.8337 1.48685 33.1188 1.93409 33.1149C3.13455 33.1018 4.33241 33.0913 5.53287 33.1044C5.89118 33.1096 6.24426 33.1371 6.60257 33.1345C6.93342 33.1319 7.27603 33.1266 7.60296 33.1606C7.57681 33.1567 7.55065 33.1541 7.5258 33.1502C7.74681 33.1685 7.95211 33.141 8.16135 33.0194C8.39673 32.8808 8.57066 32.6532 8.6452 32.3904C8.65696 32.3472 8.64781 32.3015 8.65435 32.257C8.97212 32.0857 9.19835 31.7601 9.19835 31.3795C9.19835 31.3063 9.19966 31.2344 9.19966 31.1611C11.2501 31.0578 13.2941 30.9911 15.3471 31.0317C16.3685 31.05 17.3872 31.0631 18.4059 31.1088C19.3409 31.152 20.2719 31.2056 21.2096 31.2108C22.0086 31.2161 22.8089 31.2383 23.6105 31.2409C24.1336 31.2409 24.6567 31.237 25.1797 31.2213C25.202 31.5665 25.2255 31.9105 25.2739 32.2544C25.3223 32.4257 25.4099 32.5774 25.5354 32.7029C25.6479 32.8141 25.7852 32.8873 25.933 32.937C26.1344 33.2417 26.4613 33.4627 26.8444 33.4549C27.8017 33.4339 28.7589 33.3751 29.7161 33.3659C29.9306 33.3659 30.1464 33.3685 30.3635 33.3738C30.965 33.3842 31.5691 33.3973 32.1576 33.2744C32.4218 33.2195 32.6232 33.0429 32.7618 32.8245C33.2548 32.9122 33.8315 32.6232 33.9361 32.1053C34.0237 31.6738 34.0028 31.2514 33.9805 30.8185ZM29.9005 2.25186C30.1202 2.24924 30.3438 2.28455 30.5635 2.29763C30.7531 2.30809 30.9428 2.3107 31.1298 2.3277C31.3704 2.34863 31.6058 2.36563 31.8477 2.36824C31.8425 3.18948 31.8294 4.0094 31.8215 4.83195C31.815 5.44003 31.8176 6.04811 31.8189 6.65619C31.6071 6.6418 31.3939 6.63134 31.1821 6.61957C30.7008 6.59211 30.2144 6.61434 29.7331 6.61695C29.1447 6.62219 28.5575 6.61434 27.9691 6.60911C27.8082 6.60649 27.6461 6.6078 27.4852 6.60519C27.48 5.94218 27.4891 5.28049 27.4747 4.61748C27.4617 3.86163 27.4381 3.10448 27.412 2.34732C27.6944 2.33686 27.9756 2.32509 28.2567 2.31463C28.8047 2.29632 29.3526 2.25709 29.9005 2.25186ZM5.26349 2.3107C5.60872 2.3107 5.95918 2.3107 6.30834 2.31855C6.46134 2.32378 6.61565 2.33032 6.76996 2.33817C6.78303 2.84163 6.80265 3.34379 6.82095 3.84725C6.84188 4.37687 6.83926 4.9091 6.84449 5.44264C6.84972 5.8781 6.88765 6.31357 6.90334 6.74772C6.90334 6.77126 6.90465 6.79611 6.90596 6.82096C6.27826 6.81442 5.65057 6.80526 5.02549 6.81572C4.1794 6.83011 3.33463 6.80265 2.48855 6.78434C2.48724 6.64311 2.47547 6.50057 2.47547 6.35803C2.47809 5.86372 2.47809 5.36941 2.47286 4.87641C2.4637 4.02771 2.45717 3.17902 2.4454 2.33032C3.2104 2.32116 3.9754 2.3107 4.74302 2.3107C4.91433 2.31332 5.08956 2.3107 5.26349 2.3107ZM6.64442 31.0539C6.29134 31.0461 5.93564 31.0435 5.57995 31.0356C5.08564 31.0225 4.59395 30.9925 4.10094 30.9768C3.67463 30.965 3.24963 30.9637 2.82463 30.9598C2.81024 30.4681 2.81417 29.9738 2.81024 29.4873C2.79848 28.7537 2.80632 28.0187 2.80894 27.2851C3.43009 27.2825 4.05125 27.2799 4.67371 27.276C4.99933 27.2734 5.32103 27.2681 5.64403 27.2655C5.89249 27.2629 6.14618 27.2551 6.39203 27.2864C6.30049 27.2734 6.20503 27.2603 6.11349 27.2485C6.45349 27.2969 6.7948 27.3178 7.13742 27.3257C7.13611 28.568 7.13742 29.8103 7.17665 31.0526C7.12957 31.0539 7.08119 31.05 7.03411 31.0513C6.89942 31.0539 6.77126 31.0591 6.64442 31.0539ZM23.0456 29.2741C22.1093 29.2637 21.1716 29.2414 20.2379 29.2179C19.2572 29.1918 18.2803 29.1224 17.2995 29.095C16.8248 29.0819 16.3528 29.0767 15.8794 29.0767C15.3511 29.0767 14.8241 29.0832 14.2945 29.0924C12.6036 29.1238 10.9114 29.1107 9.22058 29.1761C9.23758 28.3836 9.29251 27.5911 9.30427 26.7961C9.30689 26.579 9.2232 26.3867 9.10812 26.2154C9.08981 25.6466 8.61381 25.1654 8.03712 25.1706C7.65527 25.1732 7.27734 25.168 6.89549 25.1627C6.79872 25.1627 6.70065 25.1627 6.60649 25.1627C6.39595 25.1654 6.18672 25.1654 5.97357 25.1523C5.64795 25.134 5.32233 25.1261 4.99672 25.113C4.91172 24.301 4.9091 23.4837 4.88556 22.6676C4.87248 22.2047 4.84241 21.7405 4.84241 21.2776C4.83979 20.8042 4.85287 20.3334 4.84502 19.8613C4.82802 18.8714 4.83848 17.8789 4.83064 16.885C4.82802 16.3985 4.81756 15.9147 4.81495 15.4282C4.80972 14.9705 4.87902 14.5115 4.8921 14.0538C4.90518 13.6393 4.89472 13.2248 4.91041 12.8102C4.9261 12.3643 4.95356 11.9223 4.98495 11.479C5.04249 10.6094 5.07779 9.73974 5.10525 8.87012C5.5381 8.87927 5.97095 8.9002 6.4038 8.90804C6.63918 8.91327 6.87457 8.91327 7.10734 8.91327C7.3048 8.91327 7.50096 8.91327 7.69842 8.91327C7.79781 8.91327 7.88804 8.88189 7.97958 8.85573C7.98481 8.85573 7.99004 8.85835 7.99658 8.85835C8.52358 8.85835 9.08981 8.38235 9.03881 7.81611C9.00481 7.46042 9.00743 7.10211 8.99697 6.74642C8.98389 6.31357 8.97081 5.8768 8.97343 5.44133C8.97474 5.19941 8.97212 4.95749 8.97212 4.71425C9.74366 4.7221 10.5165 4.72471 11.2894 4.7221C12.4258 4.71687 13.5648 4.71164 14.7011 4.74302C15.6845 4.77048 16.664 4.81233 17.6474 4.82802C18.1849 4.83849 18.7249 4.83587 19.265 4.83325C19.7253 4.83064 20.1896 4.83064 20.6525 4.83325C21.4306 4.8411 22.2008 4.83325 22.9789 4.79795C23.396 4.77702 23.8158 4.76264 24.2356 4.74695C24.62 4.72995 25.0084 4.70772 25.3929 4.72733C25.4125 5.47272 25.419 6.21811 25.4203 6.96349C25.2477 7.15442 25.134 7.40027 25.134 7.67358C25.134 8.25289 25.6204 8.75635 26.2063 8.74589C27.2106 8.72889 28.2175 8.69489 29.2244 8.69227C29.2297 9.79989 29.2467 10.9049 29.2519 12.0099C29.2571 12.5421 29.2598 13.0744 29.2571 13.604C29.2545 14.1218 29.2166 14.6358 29.1983 15.1497C29.163 16.0821 29.1525 17.0132 29.1551 17.9455C29.1578 18.4621 29.1578 18.9799 29.1708 19.4939C29.1865 19.996 29.2297 20.4969 29.2506 20.9964C29.3134 22.4571 29.4049 23.9152 29.4232 25.3759C28.4712 25.3445 27.5218 25.287 26.5698 25.2347C26.5541 25.2347 26.5384 25.2334 26.5227 25.2334C25.9304 25.2334 25.4439 25.7878 25.4439 26.3606C25.4439 26.371 25.4491 26.3776 25.4491 26.388C25.2294 26.5881 25.0856 26.868 25.0882 27.1831C25.0908 27.8736 25.1052 28.5628 25.1196 29.2532C24.4278 29.2807 23.7373 29.2807 23.0456 29.2741ZM31.5744 31.1611C31.5391 31.1677 31.5051 31.1729 31.4698 31.1781C31.2082 31.2017 30.9441 31.1991 30.6812 31.1991C30.2941 31.2017 29.9058 31.2069 29.5187 31.2095C28.755 31.2187 27.99 31.2187 27.2263 31.2226C27.2067 30.7361 27.2054 30.2497 27.2171 29.7645C27.2354 29.0126 27.2459 28.2607 27.2524 27.5074C28.007 27.5349 28.7602 27.5624 29.5148 27.565C29.9476 27.565 30.3831 27.5702 30.8172 27.5519C31.1167 27.5388 31.4148 27.4852 31.7117 27.4277C31.713 28.0501 31.73 28.6713 31.781 29.2924C31.8189 29.7658 31.8712 30.2366 31.9091 30.71C31.9196 30.8512 31.9288 30.9951 31.9366 31.1376C31.9196 31.1376 31.9026 31.1311 31.8843 31.1311C31.7862 31.1324 31.6829 31.1441 31.5744 31.1611Z" fill="black"/>
</g>
</svg>
