<svg width="46" height="43" viewBox="0 0 46 43" fill="none" xmlns="http://www.w3.org/2000/svg">
<g id="Icon">
<path id="Vector" d="M12.4535 39.4227H9.33826C7.15193 39.4227 5.37341 37.6442 5.37341 35.4578V21.8924C5.37341 19.7061 7.15193 17.9276 9.33826 17.9276H12.4535C14.6398 17.9276 16.4183 19.7061 16.4183 21.8924V35.4578C16.4183 37.6442 14.6398 39.4227 12.4535 39.4227ZM9.34392 20.1932C8.40935 20.1932 7.6447 20.9578 7.6447 21.8924V35.4578C7.6447 36.3924 8.40935 37.157 9.34392 37.157H12.4592C13.3937 37.157 14.1584 36.3924 14.1584 35.4578V21.8924C14.1584 20.9578 13.3937 20.1932 12.4592 20.1932H9.34392Z" fill="black"/>
<path id="Vector_2" d="M41.2836 3.06506H38.1683C37.2338 3.06506 36.4691 3.82971 36.4691 4.76428V35.4578C36.4691 36.3924 37.2338 37.1571 38.1683 37.1571H41.2836C42.2181 37.1571 42.9828 36.3924 42.9828 35.4578V4.76428C42.9828 3.82971 42.2181 3.06506 41.2836 3.06506ZM26.8685 10.0319H23.7533C22.8187 10.0319 22.0541 10.7965 22.0541 11.7311V35.4578C22.0541 36.3924 22.8187 37.1571 23.7533 37.1571H26.8685C27.8031 37.1571 28.5677 36.3924 28.5677 35.4578V11.7311C28.5677 10.7965 27.8031 10.0319 26.8685 10.0319ZM12.4535 20.1705H9.33826C8.40369 20.1705 7.63904 20.9352 7.63904 21.8698V35.4578C7.63904 36.3924 8.40369 37.1571 9.33826 37.1571H12.4535C13.3881 37.1571 14.1527 36.3924 14.1527 35.4578V21.8698C14.1527 20.9352 13.3937 20.1705 12.4535 20.1705Z" fill="#E6E6E6"/>
<path id="Vector_3" d="M41.2836 0.799438H38.1683C35.982 0.799438 34.2035 2.57795 34.2035 4.76428V16.5399C33.167 16.0528 32.0285 15.7356 30.8334 15.6336V11.7367C30.8334 9.55041 29.0549 7.7719 26.8685 7.7719H23.7533C21.567 7.7719 19.7885 9.55041 19.7885 11.7367V35.4635C19.7885 37.6498 21.567 39.4283 23.7533 39.4283H26.8685C29.0322 39.4283 30.7937 37.6895 30.8334 35.5371C32.0285 35.4352 33.167 35.118 34.2035 34.6309V35.4635C34.2035 37.6498 35.982 39.4283 38.1683 39.4283H41.2836C43.4699 39.4283 45.2484 37.6498 45.2484 35.4635V4.76428C45.2484 2.57795 43.4642 0.799438 41.2836 0.799438ZM36.4691 21.4166C37.2394 22.6174 37.6869 24.0448 37.6869 25.5797C37.6869 27.109 37.2394 28.5364 36.4691 29.7428V21.4166ZM22.241 25.5797C22.241 21.7961 24.9711 18.6412 28.5677 17.9842V33.1752C24.9711 32.5182 22.241 29.3633 22.241 25.5797ZM23.7533 10.0319H26.8685C27.8031 10.0319 28.5677 10.7965 28.5677 11.7311V15.6903C25.9283 16.0641 23.6174 17.4688 22.0541 19.4852V11.7311C22.0541 10.7965 22.8187 10.0319 23.7533 10.0319ZM26.8685 37.1571H23.7533C22.8187 37.1571 22.0541 36.3924 22.0541 35.4578V31.6742C23.6117 33.6906 25.9226 35.101 28.5677 35.4692C28.5621 36.4037 27.8031 37.1571 26.8685 37.1571ZM30.8334 33.2545V17.9049C32.0681 18.0408 33.2123 18.4713 34.2035 19.1283V32.0367C33.2123 32.6881 32.0681 33.1186 30.8334 33.2545ZM36.4691 35.4578V34.5006L39.1086 37.1571H38.1683C37.2281 37.1571 36.4691 36.3981 36.4691 35.4578ZM42.9828 35.4578C42.9828 36.0979 42.626 36.6586 42.0992 36.9475L37.4094 32.235C38.9896 30.4678 39.9525 28.1342 39.9525 25.5797C39.9525 22.5551 38.5988 19.8364 36.4691 18.0069V4.76428C36.4691 3.82971 37.2338 3.06506 38.1683 3.06506H41.2836C42.2181 3.06506 42.9828 3.82971 42.9828 4.76428V35.4578ZM44.5347 42.9174H43.9683C43.6568 42.9174 43.4019 42.6625 43.4019 42.351C43.4019 42.0395 43.6568 41.7846 43.9683 41.7846H44.5347C44.8463 41.7846 45.1012 42.0395 45.1012 42.351C45.1012 42.6625 44.8519 42.9174 44.5347 42.9174ZM41.7027 42.9174H41.1363C40.8248 42.9174 40.5699 42.6625 40.5699 42.351C40.5699 42.0395 40.8248 41.7846 41.1363 41.7846H41.7027C42.0142 41.7846 42.2691 42.0395 42.2691 42.351C42.2691 42.6625 42.0199 42.9174 41.7027 42.9174ZM38.8707 42.9174H38.3043C37.9928 42.9174 37.7379 42.6625 37.7379 42.351C37.7379 42.0395 37.9928 41.7846 38.3043 41.7846H38.8707C39.1822 41.7846 39.4371 42.0395 39.4371 42.351C39.4371 42.6625 39.1879 42.9174 38.8707 42.9174ZM36.0387 42.9174H35.4722C35.1607 42.9174 34.9058 42.6625 34.9058 42.351C34.9058 42.0395 35.1607 41.7846 35.4722 41.7846H36.0387C36.3502 41.7846 36.6051 42.0395 36.6051 42.351C36.6051 42.6625 36.3558 42.9174 36.0387 42.9174ZM33.2066 42.9174H32.6402C32.3287 42.9174 32.0738 42.6625 32.0738 42.351C32.0738 42.0395 32.3287 41.7846 32.6402 41.7846H33.2066C33.5181 41.7846 33.773 42.0395 33.773 42.351C33.773 42.6625 33.5238 42.9174 33.2066 42.9174ZM30.3746 42.9174H29.8082C29.4967 42.9174 29.2418 42.6625 29.2418 42.351C29.2418 42.0395 29.4967 41.7846 29.8082 41.7846H30.3746C30.6861 41.7846 30.941 42.0395 30.941 42.351C30.941 42.6625 30.6918 42.9174 30.3746 42.9174ZM27.5426 42.9174H26.9761C26.6646 42.9174 26.4097 42.6625 26.4097 42.351C26.4097 42.0395 26.6646 41.7846 26.9761 41.7846H27.5426C27.8541 41.7846 28.109 42.0395 28.109 42.351C28.109 42.6625 27.8597 42.9174 27.5426 42.9174ZM24.7105 42.9174H24.1441C23.8326 42.9174 23.5777 42.6625 23.5777 42.351C23.5777 42.0395 23.8326 41.7846 24.1441 41.7846H24.7105C25.022 41.7846 25.2769 42.0395 25.2769 42.351C25.2769 42.6625 25.0277 42.9174 24.7105 42.9174ZM21.8785 42.9174H21.3121C21.0006 42.9174 20.7457 42.6625 20.7457 42.351C20.7457 42.0395 21.0006 41.7846 21.3121 41.7846H21.8785C22.19 41.7846 22.4449 42.0395 22.4449 42.351C22.4449 42.6625 22.1957 42.9174 21.8785 42.9174ZM19.0465 42.9174H18.4801C18.1685 42.9174 17.9136 42.6625 17.9136 42.351C17.9136 42.0395 18.1685 41.7846 18.4801 41.7846H19.0465C19.358 41.7846 19.6129 42.0395 19.6129 42.351C19.6129 42.6625 19.3636 42.9174 19.0465 42.9174ZM16.2144 42.9174H15.648C15.3365 42.9174 15.0816 42.6625 15.0816 42.351C15.0816 42.0395 15.3365 41.7846 15.648 41.7846H16.2144C16.526 41.7846 16.7808 42.0395 16.7808 42.351C16.7808 42.6625 16.5316 42.9174 16.2144 42.9174ZM13.3824 42.9174H12.816C12.5045 42.9174 12.2496 42.6625 12.2496 42.351C12.2496 42.0395 12.5045 41.7846 12.816 41.7846H13.3824C13.6939 41.7846 13.9488 42.0395 13.9488 42.351C13.9488 42.6625 13.6996 42.9174 13.3824 42.9174ZM10.5504 42.9174H9.98396C9.67244 42.9174 9.41755 42.6625 9.41755 42.351C9.41755 42.0395 9.67244 41.7846 9.98396 41.7846H10.5504C10.8619 41.7846 11.1168 42.0395 11.1168 42.351C11.1168 42.6625 10.8676 42.9174 10.5504 42.9174ZM7.71833 42.9174H7.15193C6.8404 42.9174 6.58552 42.6625 6.58552 42.351C6.58552 42.0395 6.8404 41.7846 7.15193 41.7846H7.71833C8.02986 41.7846 8.28474 42.0395 8.28474 42.351C8.28474 42.6625 8.03552 42.9174 7.71833 42.9174ZM4.8863 42.9174H4.3199C4.00837 42.9174 3.75349 42.6625 3.75349 42.351C3.75349 42.0395 4.00837 41.7846 4.3199 41.7846H4.8863C5.19783 41.7846 5.45271 42.0395 5.45271 42.351C5.45271 42.6625 5.20349 42.9174 4.8863 42.9174ZM2.05427 42.9174H1.48787C1.17634 42.9174 0.92146 42.6625 0.92146 42.351C0.92146 42.0395 1.17634 41.7846 1.48787 41.7846H2.05427C2.3658 41.7846 2.62068 42.0395 2.62068 42.351C2.62068 42.6625 2.37146 42.9174 2.05427 42.9174ZM1.23865 40.901C0.927124 40.901 0.672241 40.6461 0.672241 40.3346V39.7682C0.672241 39.4567 0.927124 39.2018 1.23865 39.2018C1.55017 39.2018 1.80505 39.4567 1.80505 39.7682V40.3346C1.80505 40.6461 1.55017 40.901 1.23865 40.901ZM1.23865 38.069C0.927124 38.069 0.672241 37.8141 0.672241 37.5026V36.9362C0.672241 36.6246 0.927124 36.3697 1.23865 36.3697C1.55017 36.3697 1.80505 36.6246 1.80505 36.9362V37.5026C1.80505 37.8141 1.55017 38.069 1.23865 38.069ZM1.23865 35.2369C0.927124 35.2369 0.672241 34.9821 0.672241 34.6705V34.1041C0.672241 33.7926 0.927124 33.5377 1.23865 33.5377C1.55017 33.5377 1.80505 33.7926 1.80505 34.1041V34.6705C1.80505 34.9821 1.55017 35.2369 1.23865 35.2369ZM1.23865 32.4049C0.927124 32.4049 0.672241 32.15 0.672241 31.8385V31.2721C0.672241 30.9606 0.927124 30.7057 1.23865 30.7057C1.55017 30.7057 1.80505 30.9606 1.80505 31.2721V31.8385C1.80505 32.15 1.55017 32.4049 1.23865 32.4049ZM1.23865 29.5729C0.927124 29.5729 0.672241 29.318 0.672241 29.0065V28.4401C0.672241 28.1285 0.927124 27.8737 1.23865 27.8737C1.55017 27.8737 1.80505 28.1285 1.80505 28.4401V29.0065C1.80505 29.318 1.55017 29.5729 1.23865 29.5729ZM1.23865 26.7408C0.927124 26.7408 0.672241 26.486 0.672241 26.1744V25.608C0.672241 25.2965 0.927124 25.0416 1.23865 25.0416C1.55017 25.0416 1.80505 25.2965 1.80505 25.608V26.1744C1.80505 26.486 1.55017 26.7408 1.23865 26.7408ZM1.23865 23.9088C0.927124 23.9088 0.672241 23.6539 0.672241 23.3424V22.776C0.672241 22.4645 0.927124 22.2096 1.23865 22.2096C1.55017 22.2096 1.80505 22.4645 1.80505 22.776V23.3424C1.80505 23.6539 1.55017 23.9088 1.23865 23.9088ZM1.23865 21.0768C0.927124 21.0768 0.672241 20.8219 0.672241 20.5104V19.944C0.672241 19.6324 0.927124 19.3776 1.23865 19.3776C1.55017 19.3776 1.80505 19.6324 1.80505 19.944V20.5104C1.80505 20.8219 1.55017 21.0768 1.23865 21.0768ZM1.23865 18.2447C0.927124 18.2447 0.672241 17.9899 0.672241 17.6783V17.1119C0.672241 16.8004 0.927124 16.5455 1.23865 16.5455C1.55017 16.5455 1.80505 16.8004 1.80505 17.1119V17.6783C1.80505 17.9899 1.55017 18.2447 1.23865 18.2447ZM1.23865 15.4127C0.927124 15.4127 0.672241 15.1578 0.672241 14.8463V14.2799C0.672241 13.9684 0.927124 13.7135 1.23865 13.7135C1.55017 13.7135 1.80505 13.9684 1.80505 14.2799V14.8463C1.80505 15.1578 1.55017 15.4127 1.23865 15.4127ZM1.23865 12.5807C0.927124 12.5807 0.672241 12.3258 0.672241 12.0143V11.4479C0.672241 11.1364 0.927124 10.8815 1.23865 10.8815C1.55017 10.8815 1.80505 11.1364 1.80505 11.4479V12.0143C1.80505 12.3258 1.55017 12.5807 1.23865 12.5807ZM1.23865 9.74866C0.927124 9.74866 0.672241 9.49377 0.672241 9.18225V8.61585C0.672241 8.30432 0.927124 8.04944 1.23865 8.04944C1.55017 8.04944 1.80505 8.30432 1.80505 8.61585V9.18225C1.80505 9.49377 1.55017 9.74866 1.23865 9.74866ZM1.23865 6.91663C0.927124 6.91663 0.672241 6.66174 0.672241 6.35022V5.78381C0.672241 5.47229 0.927124 5.21741 1.23865 5.21741C1.55017 5.21741 1.80505 5.47229 1.80505 5.78381V6.35022C1.80505 6.66174 1.55017 6.91663 1.23865 6.91663Z" fill="black"/>
<path id="Vector_4" d="M29.9668 17.8596C25.7074 17.8596 22.241 21.326 22.241 25.5854C22.241 29.8448 25.7074 33.3055 29.9668 33.3055C34.2262 33.3055 37.6926 29.8391 37.6926 25.5797C37.6926 21.3204 34.2262 17.8596 29.9668 17.8596Z" fill="white"/>
<path id="Vector_5" d="M29.9668 19.151C29.1738 19.151 28.3921 19.2926 27.6558 19.5758C27.3613 19.6891 27.2197 20.0176 27.333 20.3065C27.4462 20.601 27.7748 20.7426 28.0636 20.6293C28.6697 20.3971 29.3097 20.2781 29.9668 20.2781C32.8894 20.2781 35.2627 22.6571 35.2627 25.574C35.2627 26.6899 34.9171 27.7547 34.2714 28.661C34.0222 29.0121 33.7277 29.3293 33.3935 29.6125C33.1556 29.8164 33.1273 30.1733 33.3312 30.4112C33.4445 30.5414 33.6031 30.6094 33.7617 30.6094C33.892 30.6094 34.0222 30.5641 34.1298 30.4735C34.5263 30.1336 34.8888 29.7485 35.1947 29.318C35.982 28.2192 36.4011 26.9278 36.4011 25.5684C36.3955 22.034 33.5125 19.151 29.9668 19.151Z" fill="black"/>
</g>
</svg>
