<svg width="37" height="38" viewBox="0 0 37 38" fill="none" xmlns="http://www.w3.org/2000/svg">
<g id="Icon">
<path id="Vector" d="M28.4208 5.35168H8.01167C6.10536 5.35168 4.56 6.89705 4.56 8.80335V29.2125C4.56 31.1188 6.10536 32.6642 8.01167 32.6642H28.4208C30.3271 32.6642 31.8725 31.1188 31.8725 29.2125V8.80335C31.8725 6.89705 30.3271 5.35168 28.4208 5.35168Z" stroke="black" stroke-width="1.92" stroke-miterlimit="10"/>
<path id="Vector_2" d="M22.7525 11.4158H13.6642C11.9852 11.4158 10.6242 12.7769 10.6242 14.4558V23.5442C10.6242 25.2231 11.9852 26.5842 13.6642 26.5842H22.7525C24.4314 26.5842 25.7925 25.2231 25.7925 23.5442V14.4558C25.7925 12.7769 24.4314 11.4158 22.7525 11.4158Z" stroke="black" stroke-width="1.92" stroke-miterlimit="10"/>
<path id="Vector_3" d="M10.6242 0.791687V3.83169" stroke="black" stroke-width="1.92" stroke-miterlimit="10"/>
<path id="Vector_4" d="M18.2083 0.791687V3.83169" stroke="black" stroke-width="1.92" stroke-miterlimit="10"/>
<path id="Vector_5" d="M25.7925 0.791687V3.83169" stroke="black" stroke-width="1.92" stroke-miterlimit="10"/>
<path id="Vector_6" d="M10.6242 34.1683V37.2083" stroke="black" stroke-width="1.92" stroke-miterlimit="10"/>
<path id="Vector_7" d="M18.2083 34.1683V37.2083" stroke="black" stroke-width="1.92" stroke-miterlimit="10"/>
<path id="Vector_8" d="M25.7925 34.1683V37.2083" stroke="black" stroke-width="1.92" stroke-miterlimit="10"/>
<path id="Vector_9" d="M0 26.5842H3.04" stroke="black" stroke-width="1.92" stroke-miterlimit="10"/>
<path id="Vector_10" d="M0 19H3.04" stroke="black" stroke-width="1.92" stroke-miterlimit="10"/>
<path id="Vector_11" d="M0 11.4158H3.04" stroke="black" stroke-width="1.92" stroke-miterlimit="10"/>
<path id="Vector_12" d="M33.3767 26.5842H36.4167" stroke="black" stroke-width="1.92" stroke-miterlimit="10"/>
<path id="Vector_13" d="M33.3767 19H36.4167" stroke="black" stroke-width="1.92" stroke-miterlimit="10"/>
<path id="Vector_14" d="M33.3767 11.4158H36.4167" stroke="black" stroke-width="1.92" stroke-miterlimit="10"/>
</g>
</svg>
