<svg width="20" height="21" viewBox="0 0 20 21" fill="none" xmlns="http://www.w3.org/2000/svg">
<path fill-rule="evenodd" clip-rule="evenodd" d="M10 15.9545C13.0125 15.9545 15.4545 13.5124 15.4545 10.5C15.4545 7.48749 13.0125 5.04541 10 5.04541C6.98754 5.04541 4.54546 7.48749 4.54546 10.5C4.54546 13.5124 6.98754 15.9545 10 15.9545ZM10 14.1363C12.0083 14.1363 13.6364 12.5082 13.6364 10.5C13.6364 8.49165 12.0083 6.86359 10 6.86359C7.99169 6.86359 6.36364 8.49165 6.36364 10.5C6.36364 12.5082 7.99169 14.1363 10 14.1363Z" fill="white"/>
<path d="M15.4545 4.13623C14.9525 4.13623 14.5455 4.54325 14.5455 5.04532C14.5455 5.54739 14.9525 5.95441 15.4545 5.95441C15.9566 5.95441 16.3636 5.54739 16.3636 5.04532C16.3636 4.54325 15.9566 4.13623 15.4545 4.13623Z" fill="white"/>
<path fill-rule="evenodd" clip-rule="evenodd" d="M0.594509 3.47824C0 4.64503 0 6.17245 0 9.22727V11.7727C0 14.8275 0 16.355 0.594509 17.5217C1.11745 18.5481 1.95189 19.3825 2.97824 19.9055C4.14503 20.5 5.67245 20.5 8.72727 20.5H11.2727C14.3275 20.5 15.855 20.5 17.0217 19.9055C18.0481 19.3825 18.8825 18.5481 19.4055 17.5217C20 16.355 20 14.8275 20 11.7727V9.22727C20 6.17245 20 4.64503 19.4055 3.47824C18.8825 2.45189 18.0481 1.61745 17.0217 1.09451C15.855 0.5 14.3275 0.5 11.2727 0.5H8.72727C5.67245 0.5 4.14503 0.5 2.97824 1.09451C1.95189 1.61745 1.11745 2.45189 0.594509 3.47824ZM11.2727 2.31818H8.72727C7.16986 2.31818 6.11114 2.3196 5.2928 2.38645C4.49567 2.45158 4.08804 2.56963 3.80367 2.71452C3.11945 3.06315 2.56315 3.61945 2.21452 4.30367C2.06963 4.58804 1.95158 4.99567 1.88645 5.7928C1.8196 6.61114 1.81818 7.66986 1.81818 9.22727V11.7727C1.81818 13.3302 1.8196 14.3888 1.88645 15.2072C1.95158 16.0044 2.06963 16.412 2.21452 16.6964C2.56315 17.3805 3.11945 17.9368 3.80367 18.2855C4.08804 18.4304 4.49567 18.5485 5.2928 18.6135C6.11114 18.6804 7.16986 18.6818 8.72727 18.6818H11.2727C12.8302 18.6818 13.8888 18.6804 14.7072 18.6135C15.5044 18.5485 15.912 18.4304 16.1964 18.2855C16.8805 17.9368 17.4368 17.3805 17.7855 16.6964C17.9304 16.412 18.0485 16.0044 18.1135 15.2072C18.1804 14.3888 18.1818 13.3302 18.1818 11.7727V9.22727C18.1818 7.66986 18.1804 6.61114 18.1135 5.7928C18.0485 4.99567 17.9304 4.58804 17.7855 4.30367C17.4368 3.61945 16.8805 3.06315 16.1964 2.71452C15.912 2.56963 15.5044 2.45158 14.7072 2.38645C13.8888 2.3196 12.8302 2.31818 11.2727 2.31818Z" fill="white"/>
</svg>
