<svg width="20" height="20" viewBox="0 0 20 20" fill="none" xmlns="http://www.w3.org/2000/svg">
<path d="M5.00001 6.3635C5.75313 6.3635 6.36365 5.75299 6.36365 4.99987C6.36365 4.24675 5.75313 3.63623 5.00001 3.63623C4.24689 3.63623 3.63638 4.24675 3.63638 4.99987C3.63638 5.75299 4.24689 6.3635 5.00001 6.3635Z" fill="white"/>
<path d="M3.63638 8.1818C3.63638 7.67972 4.04339 7.27271 4.54547 7.27271H5.45456C5.95663 7.27271 6.36365 7.67971 6.36365 8.1818V15.4545C6.36365 15.9566 5.95663 16.3636 5.45456 16.3636H4.54547C4.04339 16.3636 3.63638 15.9566 3.63638 15.4545V8.1818Z" fill="white"/>
<path d="M9.09091 16.3636H10C10.5021 16.3636 10.9091 15.9566 10.9091 15.4545V11.3636C10.9091 9.99998 13.6364 9.09089 13.6364 10.9091V15.4549C13.6364 15.957 14.0434 16.3636 14.5455 16.3636H15.4545C15.9566 16.3636 16.3636 15.9566 16.3636 15.4545V9.99998C16.3636 8.1818 15 7.27271 13.1818 7.27271C11.3636 7.27271 10.9091 8.63634 10.9091 8.63634V8.1818C10.9091 7.67971 10.5021 7.27271 10 7.27271H9.09091C8.58882 7.27271 8.18182 7.67972 8.18182 8.1818V15.4545C8.18182 15.9566 8.58882 16.3636 9.09091 16.3636Z" fill="white"/>
<path fill-rule="evenodd" clip-rule="evenodd" d="M17.2727 0C18.779 0 20 1.22105 20 2.72727V17.2727C20 18.779 18.779 20 17.2727 20H2.72727C1.22105 20 0 18.779 0 17.2727V2.72727C0 1.22105 1.22105 0 2.72727 0H17.2727ZM17.2727 1.81818C17.7748 1.81818 18.1818 2.2252 18.1818 2.72727V17.2727C18.1818 17.7748 17.7748 18.1818 17.2727 18.1818H2.72727C2.2252 18.1818 1.81818 17.7748 1.81818 17.2727V2.72727C1.81818 2.2252 2.2252 1.81818 2.72727 1.81818H17.2727Z" fill="white"/>
</svg>
